<?xml version="1.0" encoding="utf-8"?>
<!-- Generator: Adobe Illustrator 19.0.0, SVG Export Plug-In . SVG Version: 6.00 Build 0)  -->
<svg version="1.1" id="Layer_1" xmlns="http://www.w3.org/2000/svg" xmlns:xlink="http://www.w3.org/1999/xlink" x="0px" y="0px"
	 viewBox="0 0 850.4 850.4" style="enable-background:new 0 0 850.4 850.4;" xml:space="preserve">
<style type="text/css">
	.st0{fill:#92272B;}
</style>
<g>
	<path class="st0" d="M843.7,425.5c-0.2,230.7-187.2,418.6-419.3,418.2C193.4,843.3,6.4,656,6.7,424.6C7,193.3,194.6,6.1,426.3,6.7
		C657.7,7.3,843.8,195,843.7,425.5z M834.2,425.3c0-225.2-182.1-408.9-408.7-409.1C199.5,16,16.3,198.8,16.2,424.9
		C16.1,651.1,199.1,834.1,425,834.2C651.7,834.3,834.1,650.6,834.2,425.3z"/>
	<path class="st0" d="M299.4,787.3c6.5-18.7,12.9-37.2,19.4-55.9c-5.8-2.3-11.4-4.3-16.9-6.6c-5.5-2.3-11.1-4.7-16.5-7.3
		c-5.5-2.6-11-5.5-16.3-8.4c-5.3-2.9-10.5-6-15.6-9.1c-5.1-3.2-10.1-6.6-15.3-10c-1,0.5-1.4,1.6-2.1,2.5
		c-11.3,15.9-22.6,31.9-33.9,47.8c-0.8,1.1-1.6,2.2-2.4,3.3c-8.4-4-41.1-32-57.4-49.1c-17.3-18.3-32.8-38-46.4-59.2
		c-13.6-21.3-25.1-43.7-34.3-67.3c0.4-0.3,0.8-0.6,1.1-0.8c15.5-6.1,31-12.2,46.5-18.3c0.2-0.1,0.4,0,0.9-0.1c2,4.6,3.9,9.3,6,13.9
		c2.1,4.8,4.4,9.5,6.7,14.1c2.3,4.6,4.7,9.1,7.2,13.5c2.5,4.5,5.1,8.8,7.7,13.2c-2,1.8-21.5,14.2-27.6,17.5
		c-0.3-0.2-0.6-0.3-0.8-0.5c-7.1-11.4-13.5-23.1-19.3-35.3c1.8-1.3,3.8-2.1,5.9-3c1.9,3.1,3.3,6.5,5,9.6c1.8,3.3,3.5,6.6,5.3,9.9
		c1.8,3.2,3.6,6.3,5.3,9.4c2.5-0.8,10.9-5.6,16.7-9.6c-0.2-0.4-0.3-1-0.6-1.4c-7.8-13.3-14.8-27.1-20.7-41.4
		c-0.1-0.3-0.3-0.6-0.6-1.1c-4,1.3-7.9,3.2-11.8,4.8c-3.9,1.5-7.8,3.2-11.6,4.8c-4,1.7-7.9,3.3-11.8,5c3.4,13,30.4,62.3,39.5,72
		c16.1-11.2,32.2-22.4,48.4-33.8c-2.8-4.3-5.6-8.4-8.2-12.6c-2.7-4.3-5.3-8.7-7.9-13.2c-2.5-4.3-4.8-8.7-7.1-13.2
		c-2.3-4.5-4.4-9-6.4-13.5c-2.1-4.7-4.1-9.4-6-14.1c-1.8-4.6-3.5-9.3-5.4-14.2c-0.6,0.1-1.3,0.1-1.9,0.3
		C97,536.4,77.6,543,58.1,549.6c-0.7,0.3-1.5,0.5-2.4,0.7c-0.3-0.6-0.7-1.2-0.9-1.8c-5.4-16.5-9.9-33.3-13.1-50.4
		c-2.5-13.5-4.4-27.1-5.5-40.8c-1.4-16.1-1.7-32.2-1-48.4c0.7-16.4,2.3-32.6,5.1-48.8c1.8-10.2,3.8-20.3,6.3-30.3
		c0.2-0.9,0.5-1.7,0.8-2.8c0.7,0.1,1.3,0,2,0.2c15.6,4,31.2,8.1,46.7,12.2c0.5,0.1,1,0.4,1.7,0.7c-0.6,4.1-1.9,8-2.7,11.9
		c-0.8,4-1.6,8-2.3,12c-0.7,4-1.4,8.1-2,12.1c-0.6,4-1.1,8.1-1.6,12.2c-0.5,4.1-0.8,8.1-1.2,12.4c-0.4,0.1-0.8,0.3-1.2,0.3
		c-10.1-0.7-20.2-1.4-30.3-2.1c-0.4,0-0.9-0.2-1.5-0.3c0.3-6.9,1.1-13.6,1.9-20.3c0.9-6.8,2-13.5,3-20.2c2.4-0.5,4.4,0.6,6.6,0.8
		c-0.1,3.8-1.1,7.3-1.6,10.9c-0.5,3.7-1,7.4-1.5,11.1c-0.4,3.6-0.8,7.2-1.2,11c6.5,0.8,12.8,1.3,19.3,1.7c0.7-5.5,1.3-10.9,2-16.3
		c0.8-5.4,1.6-10.8,2.6-16.1c1-5.3,2.2-10.6,3.3-16.1c-12.5-3-24.9-5.9-37.1-8.9c-4.9,12-12.3,70.4-10.3,81.2
		c2.4,0.4,52,1.4,58.8,1.2c0.1-0.7,0.3-1.4,0.3-2.2c0.4-9.5,0.9-19.1,2.1-28.5c2.3-19.4,6.1-38.6,11.9-57.3c0.1-0.3,0.1-0.7,0.2-1.2
		c-0.5-0.3-1-0.7-1.6-0.9c-19.7-6.1-39.4-12.3-59.1-18.4c-0.7-0.2-1.4-0.6-2.4-0.9c11.2-35.8,27.1-69.2,47.9-100.3
		c21.5-32.1,47.1-60.5,76.9-85c2.1,1.9,30.3,36.1,33.2,40.2c-0.4,0.5-0.8,1-1.3,1.4c-14.7,12.2-28.3,25.6-40.7,40.2
		c-0.4,0.5-0.9,1-1.4,1.5c-0.1,0.1-0.2,0.1-0.3,0.1c-2.3-1.3-19-15.1-25.1-20.8c2.4-4.2,21.5-24.7,28.2-30.2
		c0.8,0.8,1.6,1.5,2.3,2.3c0.7,0.7,1.4,1.5,2.2,2.4c-1.4,1.7-3.1,3.1-4.6,4.6c-1.6,1.6-3.2,3.2-4.8,4.8c-1.5,1.5-3,3.1-4.5,4.7
		c-1.6,1.7-3.1,3.3-4.6,5c-1.5,1.6-2.9,3.2-4.3,4.8c1.7,2.1,11.2,10.4,14.5,12.8c2.9-2.8,5.4-6,8.3-8.8c2.9-2.9,5.7-5.9,8.6-8.8
		c2.9-2.9,5.9-5.7,8.9-8.5c3-2.8,6.1-5.5,9.3-8.3c-8.4-9.8-16.6-19.4-24.9-29c-10.4,6.2-49.7,47.8-56.4,59.7
		c15.6,11.9,31.3,23.7,47.1,35.7c3.2-4,6.3-7.9,9.5-11.7c3.3-3.9,6.6-7.8,10.1-11.5c3.4-3.7,6.9-7.3,10.4-10.8
		c3.5-3.5,7.2-7,10.9-10.3c3.8-3.4,7.7-6.8,11.6-10c3.8-3.2,7.8-6.2,11.8-9.4c0.1-1.1-0.8-1.8-1.4-2.5
		c-11.9-15.9-23.8-31.9-35.7-47.8c-0.7-0.9-1.3-1.8-2-2.8c0.6-1.2,1.8-1.7,2.8-2.4C221,91,249.2,75.3,279.4,63.1
		c21.2-8.5,43-15.2,65.3-19.8c10.2-2.1,20.5-4,30.9-5.2c8-1,16.1-1.5,24.1-2.3c0.8-0.1,1.5,0,2.4,0c0.1,0.8,0.3,1.3,0.4,1.9
		c1,16.6,1.9,33.1,2.8,49.7c-0.8,0.8-1.7,0.7-2.6,0.7c-3.6,0.3-7.2,0.6-10.9,0.9c-10.4,0.9-20.7,2.5-31,4.5
		c-5.5,1.1-10.9,2.3-16.5,3.5c-0.3-0.6-0.6-1.3-0.8-2.1c-2.3-9.1-4.5-18.3-6.8-27.4c-0.2-0.8-0.2-1.5-0.4-2.5c0.7-0.2,1.4-0.4,2-0.6
		c10.4-2.5,20.8-4.6,31.4-6.1c2.2-0.3,4.5-0.6,6.9-1c1,2.1,0.8,4.3,1.1,6.5c-3.7,1.1-7.3,1.1-10.9,1.8c-3.7,0.7-7.4,1.2-11.1,2
		c-3.5,0.7-7.1,1.1-10.7,2.5c1.1,6.3,2.7,12.3,4,18.6c0.9-0.1,1.7-0.1,2.4-0.2c6.7-1.2,13.4-2.6,20.1-3.7c6.4-1,12.8-1.7,19.2-2.5
		c2.2-0.3,4.5-0.5,7-0.7c0.1-4.3-0.6-8.4-0.8-12.6c-0.2-4.3-0.7-8.6-1.1-12.9c-0.3-4.2-0.6-8.3-1-12.5c-9.8-1.7-69,9.3-80.6,14.9
		c1.7,6.3,3.7,12.5,5.6,18.8c1.9,6.2,3.7,12.4,5.6,18.6c1.9,6.3,3.8,12.6,5.8,19.1c0.7-0.1,1.4-0.2,2-0.4
		c11.5-3.4,23.2-6.2,35.1-8.3c9.5-1.7,19.1-3.1,28.7-3.7c7.5-0.5,15-0.8,22.5-1.3c0.4,0,0.9-0.1,1.5-0.2c0.1-7.4,0-14.6-0.1-21.8
		c-0.1-7.4-0.3-14.8-0.4-22.2c-0.1-7.2-0.2-14.5-0.2-21.7c4-0.8,24.5-0.3,34.9,0.6c41.5,3.3,81.5,12.8,119.9,28.8
		c21,8.7,41,19.2,60,31.4c0.1,0.4,0.1,0.5,0.1,0.7c0,0.1,0,0.2-0.1,0.3c-8.9,13.9-17.8,27.7-26.6,41.6c-0.3,0.5-0.6,0.9-1,1.5
		c-0.7-0.3-1.3-0.5-1.8-0.8c-16.2-10.3-33.3-19.1-51-26.5c-0.7-0.3-1.4-0.7-2.1-1c1.4-4.4,11.2-28.1,12.4-30.3
		c5.6,1.4,31.6,13.7,37.2,17.6c-0.8,1.5-1.6,2.9-2.4,4.4c-0.2,0.4-0.5,0.7-0.8,1.2c-5-2.6-9.9-5.1-14.9-7.5c-4.9-2.4-9.7-4.7-15-6.7
		c-2.7,5.9-5.1,11.7-7.7,17.7c5.1,2.4,10,4.6,14.9,7c4.9,2.4,9.7,4.9,14.5,7.5c4.8,2.6,9.4,5.3,14.1,8c0.4-0.3,0.7-0.5,0.8-0.8
		c6.5-10.5,12.9-21.1,19.4-31.6c-9.3-8-58.4-31.4-73.9-35.1c-1.4,2.3-16.4,45-19.5,55.4c0.6,1.2,1.9,1.2,2.9,1.6
		c17.6,6.3,34.4,14.1,50.6,23.3c8.4,4.8,16.6,9.9,24.5,15.4c0.7,0.5,1.5,1,2.4,1.6c2.8-3.5,5.2-7.2,7.8-10.7
		c2.6-3.6,5.1-7.2,7.7-10.8c2.5-3.5,5-7,7.5-10.6c2.6-3.6,5.1-7.2,7.7-10.8c2.6-3.6,5.1-7.2,7.7-10.8c6.2,3.3,27.6,20.6,40.9,33
		c24.6,23,46,48.7,64,77.2c13.1,20.8,24.2,42.6,33.3,65.7c-5.4,2.5-10.8,4.3-16.1,6.5c-5.4,2.2-10.8,4.2-16.1,6.3
		c-5.4,2.1-10.7,4.2-16.3,6.3c-2.8-6.4-5.4-12.7-8.3-18.8c-2.9-6.3-6.1-12.4-9.4-18.5c-3.2-6-6.7-11.8-10.2-18
		c9.1-5.9,18.4-11.5,27.8-17.4c0.5,0.6,1,1.1,1.3,1.6c6.7,10.8,12.8,22,18.3,33.4c0.1,0.3,0.2,0.6,0.3,1.1c-1.8,1.2-3.7,2-5.9,3
		c-4.9-9.9-10-19.7-15.7-29c-2.5,1-11.5,6.2-16.7,9.7c1.3,3,3.2,5.6,4.7,8.5c1.5,2.9,3.2,5.8,4.7,8.7c1.5,2.8,2.9,5.7,4.3,8.5
		c1.4,3,2.8,5.9,4.2,8.9c1.4,3,2.7,6,3.9,8.8c0.3,0.2,0.4,0.3,0.5,0.3c0.1,0,0.2,0,0.3,0c11.4-4.7,22.8-9.5,34.2-14.2
		c0.2-0.1,0.3-0.3,0.5-0.4c-2.9-11.9-27.4-56.8-39-71.6c-0.1,0-0.2-0.1-0.3-0.1c-0.1,0-0.2,0-0.3,0.1c-16,11.1-32.1,22.3-48.3,33.6
		c5.7,8.5,11.2,17,16.2,25.8c4.9,8.7,9.4,17.6,13.5,26.7c4.1,9.2,7.8,18.6,11.2,28.4c0.9-0.2,1.6-0.3,2.3-0.6
		c19.3-6.5,38.7-13.1,58-19.6c0.7-0.2,1.5-0.5,2.2-0.7c1.5,2.2,2.8,6.5,6.3,18.7c11.5,40.6,16.1,81.9,14.3,124
		c-1.2,27.2-5.2,54-12.1,80.5c-0.8-0.1-1.5,0-2.1-0.2c-15.5-4-30.9-8.1-46.4-12.1c-0.6-0.2-1.3-0.4-2-0.7c1.5-6.7,3-13.3,4.3-20
		c1.3-6.7,2.4-13.4,3.3-20.2c0.9-6.7,1.6-13.5,2.4-20.5c0.4-0.1,0.9-0.2,1.4-0.2c6.3,0.4,12.7,0.9,19,1.3c3.6,0.3,7.3,0.5,10.9,0.8
		c0.4,0,0.9,0.1,1.2,0.2c0.2,0.2,0.3,0.3,0.3,0.4c0,0.1,0.1,0.2,0.1,0.3c-0.1,1-0.1,2-0.2,3.1c-1,12.1-2.6,24.2-4.7,36.1
		c0,0.2-0.2,0.4-0.4,0.8c-2.1,0.4-4-0.7-6.3-0.8c0-3.8,1.1-7.3,1.5-10.9c0.4-3.7,1-7.4,1.5-11.1c0.5-3.6,0.8-7.2,1.2-11
		c-6.4-0.9-12.6-1.3-19-1.8c-0.2,0.7-0.6,1.3-0.6,1.9c-0.8,8.8-2,17.6-3.6,26.3c-1.2,6.4-2.6,12.7-3.9,19c-0.1,0.3-0.1,0.7-0.2,1.2
		c4,1.3,8.1,2,12.1,3c4.2,1,8.4,2,12.6,3c4.1,1,8.2,2,12.2,2.9c1-0.5,1-1.5,1.2-2.4c2.6-11.4,4.7-22.9,6.3-34.5
		c1.8-13.6,3-27.3,3.3-41.1c0-1,0-2,0-3.2c-0.6-0.1-1.1-0.3-1.7-0.4c-18.6-0.3-37.3-0.7-55.9-1c-0.5,0-0.9,0.1-1.5,0.1
		c-0.1,0.5-0.3,1-0.3,1.6c-0.8,29.6-5.4,58.5-14.1,86.8c-0.1,0.2-0.1,0.4-0.1,0.9c0.5,0.2,1.1,0.6,1.7,0.8
		c19.6,6.1,39.2,12.2,58.8,18.3c0.8,0.3,1.7,0.6,2.7,1c-11.4,36.4-27.6,70.2-48.8,101.7c-21.3,31.6-46.7,59.5-76,83.7
		c-2.2-2.1-28.1-33.3-33.2-40.1c0.4-0.5,0.8-1,1.3-1.4c14.9-12.4,28.6-25.9,41.2-40.7c0.4-0.4,0.6-1,0.6-0.9c0.8-0.2,0.9-0.3,1-0.3
		c0.1,0,0.2,0.1,0.3,0.1c8,6.7,16,13.4,24,20.2c0.2,0.2,0.4,0.5,0.7,0.9c-8.8,10.4-18.1,20.4-28.1,29.8c-1.2-0.5-1.8-1.5-2.5-2.3
		c-0.7-0.7-1.4-1.5-2.2-2.4c1.1-1.4,2.5-2.5,3.8-3.8c1.3-1.3,2.6-2.6,3.9-3.9c1.4-1.4,2.7-2.8,4-4.1c1.3-1.3,2.5-2.6,3.8-4
		c1.2-1.3,2.5-2.7,3.7-4c1.2-1.3,2.4-2.7,3.6-4c-1.5-2-9.3-9-14.3-12.9c-0.4,0.3-0.9,0.6-1.2,1c-10.2,11.5-21.1,22.2-32.7,32.3
		c-0.3,0.3-0.8,0.5-1.1,0.7c1.7,2.8,20,24.4,24.9,29.5c0.5-0.3,1.1-0.6,1.5-1c19.8-17.2,37.7-36.2,53.7-57c0.3-0.4,0.6-0.9,0.9-1.3
		c-2.4-2.4-26.3-20.7-45.5-34.9c-0.5-0.4-1.1-0.7-1.8-1.2c-9.3,12.1-19.2,23.5-29.9,34.2c-10.7,10.6-22.1,20.5-34.3,29.7
		c2.5,3.9,5.3,7.3,8,10.9c2.6,3.5,5.2,6.9,7.7,10.4c2.7,3.5,5.3,7.1,8,10.6c2.6,3.5,5.2,6.9,7.7,10.4c2.6,3.5,5.3,7.1,8.1,10.8
		c-0.8,0.7-1.6,1.3-2.4,1.9c-25.8,19-53.6,34.5-83.2,46.7c-19.3,7.9-39.2,14.2-59.6,18.9c-11.8,2.7-23.8,5-35.8,6.4
		c-7.6,0.9-15.1,1.7-22.7,2.5c-1.9,0.2-3.9,0.2-5.8,0.2c-0.2,0-0.4-0.2-0.8-0.4c-1.1-17-2-34.1-3-50.9c0.5-0.9,1.3-0.8,1.9-0.9
		c4-0.4,7.9-0.7,11.9-1c7.8-0.7,15.6-1.7,23.3-3.1c7.9-1.4,15.8-3.1,23.9-4.7c0.2,0.4,0.5,0.8,0.6,1.4c2.3,9.3,4.6,18.5,6.9,27.8
		c0.2,0.9,0.3,1.7,0.5,2.8c-13.3,3.4-26.7,5.8-40.4,7.6c-0.6-2.1-1-4.2-1-6.5c3.6-1.1,7.2-1.1,10.8-1.8c3.7-0.7,7.4-1.2,11.1-2
		c3.5-0.7,7.1-1.3,10.8-2.3c-1.3-6.4-2.7-12.5-4.2-18.8c-5.5,1.1-10.8,2.2-16.2,3.1c-5.4,0.9-10.8,1.8-16.2,2.5
		c-5.4,0.7-10.8,1.2-16.3,1.8c1,12.9,2,25.5,3,38c12.9,0.9,65.6-8.9,80.4-14.8c0-0.1,0.1-0.2,0.1-0.3c0-0.1,0.1-0.2,0.1-0.3
		c-5.5-18.4-11.1-36.7-16.6-55.1c-0.1-0.3-0.3-0.6-0.6-1.1c-14.5,4.3-29.1,7.7-44,9.9c-14.9,2.3-30,3.5-45.3,3.8
		c-0.1,1-0.2,1.8-0.2,2.7c0.1,9.7,0.3,19.3,0.4,29c0.1,10.5,0.2,20.9,0.3,31.4c0,0.9,0,1.8,0,2.9c-0.7,0.1-1.3,0.3-2,0.3
		c-8.6,0-17.3,0.1-25.9-0.6c-6.9-0.6-13.8-0.9-20.7-1.7c-8-0.9-16-2-23.9-3.4c-13.6-2.4-27.1-5.5-40.4-9.3
		c-35.2-10.1-68.3-25-99.3-44.5c-0.9-0.5-1.7-1.1-2.7-1.8c0.2-0.5,0.4-1.1,0.7-1.5c8.8-13.7,17.5-27.3,26.3-41
		c0.3-0.5,0.7-0.9,1.1-1.5c4.5,2.7,8.8,5.3,13.2,7.8c4.5,2.6,9.1,5.1,13.7,7.5c4.5,2.3,9.1,4.6,13.7,6.7c4.6,2.2,9.3,4.1,13.9,6.2
		c-0.6,2.7-9.8,25.6-12.1,30.3c-0.1,0-0.2,0.1-0.3,0.1c-0.1,0-0.2,0.1-0.3,0.1c-8.5-3.4-16.9-7.2-25.1-11.3
		c-3.8-1.9-7.7-3.9-11.6-5.9c0.7-2.3,1.8-4,3.1-6c5.1,2.4,9.9,5.2,14.9,7.5c4.9,2.3,9.8,4.5,14.7,6.8c1.5-2.2,6.3-12.9,7.8-17.5
		c0-0.1,0-0.2-0.1-0.3c-0.1-0.1-0.1-0.2-0.2-0.2c-9.2-4.1-18.3-8.4-27.2-13.3c-5.3-2.9-10.4-5.9-15.6-8.9
		c-1.8,2-16.3,25.3-20.2,32.4C232.8,759.1,281.9,782.5,299.4,787.3z M124.3,324.9c-4.9,14.7-8.6,29.3-11.2,44.2
		c-2.7,14.9-4.2,29.9-4.8,45c-0.6,15.1,0.1,30.2,1.7,45.3c1.5,15,4.4,29.8,8,44.7c-1.6,0.4-3,0.8-4.5,1.2
		c-14.4,3.7-28.8,7.4-43.2,11.1c-0.7,0.2-1.5,0.1-2.2,0.2c-4.7-15.8-11.2-57.2-10.3-65.9c9.6-0.7,19.3-1.4,28.9-1.9
		c0.9,1.2,0.6,2.4,0.7,3.5c0.4,3.7,0.6,7.5,1,11.2c0.9,7,2,13.9,3,20.9c0.1,0.6,0,1.3,0,2.1c-2.3-0.1-4.1,1-6.1,0.7
		c-0.2-0.3-0.4-0.5-0.4-0.7c-0.8-4.7-1.6-9.4-2.2-14.1c-0.6-4.6-1.1-9.3-1.6-13.9c-0.1-0.9,0-1.9-1-2.4c-5,0.6-10.1,0.7-15.3,1.6
		c0.3,2.5,0.5,4.7,0.7,7c1.4,14,3.8,27.9,7,41.6c0.1,0.5,0.4,1,0.6,1.6c0.6,0,1.1,0,1.5-0.1c11.4-2.7,22.7-5.4,34.1-8.1
		c0.3-0.1,0.6-0.3,0.9-0.5c-1.4-7.4-3-14.7-4.1-22.1c-1.2-7.5-2.1-15.1-2.8-22.6c-0.7-7.4-1-14.9-1.5-22.3c-0.4-0.1-0.6-0.3-0.8-0.3
		c-19.2,0.3-38.4,0.7-57.6,1c-0.1,0-0.2,0.1-0.3,0.1c-0.1,0.1-0.2,0.1-0.4,0.4c0,0.8-0.1,1.8-0.1,2.8c0.2,4.2,0.3,8.4,0.6,12.6
		c0.5,6.5,0.9,12.9,1.6,19.4c1.2,11.2,3,22.3,5.2,33.3c2.6,12.6,5.7,25,9.5,37.3c0.2,0.7,0.6,1.3,1,2.1c4.4-1.4,8.7-2.7,12.9-4
		c4.1-1.3,8.2-2.6,12.3-3.9c4.2-1.3,8.4-2.7,12.6-4c4.1-1.3,8.2-2.7,12.3-3.9c4.2-1.2,8.3-2.9,12.8-3.8
		c19.2,59.1,52.7,108.5,100.1,148.3c-2.2,3.3-30.9,37.8-32.7,39.4c-10.4-7.1-41.1-37.7-47.1-47c0.2-0.2,0.4-0.5,0.6-0.7
		c6.9-5.8,13.7-11.6,20.6-17.3c0.4-0.3,0.9-0.5,1.4-0.8c8,9.6,16.5,18.4,25.2,27c0.1,0.1,0.1,0.2,0.2,0.3c0,0.1,0,0.2-0.1,0.5
		c-0.6,0.6-1.3,1.4-2,2.1c-0.8,0.8-1.4,1.8-2.6,2.2c-3.7-3.7-7.3-7.2-10.8-10.9c-3.6-3.8-7.1-7.6-10.6-11.4
		c-2.4,1.5-9.5,7.7-11.9,10.2c2,3.1,8.8,10.5,17.2,18.8c10.6,10.5,16.2,15.5,19.3,17.1c0.2-0.3,0.3-0.7,0.6-1.1
		c7.4-8.6,14.8-17.2,22.2-25.8c0.4-0.5,0.7-1.1,0.9-1.5c-5.6-5.3-11.2-10.3-16.5-15.6c-5.4-5.4-10.6-10.9-15.6-16.6
		c-4.9-5.6-9.6-11.4-14.5-17.3c-15.7,11.9-31.4,23.8-47.2,35.8c0.7,1,1.4,1.9,2,2.8c8.1,10.4,16.6,20.4,25.7,30
		c14.7,15.4,30.5,29.5,47.6,42.3c0.8,0.6,1.4,1.5,2.6,1.4c0.1-0.1,0.2-0.2,0.3-0.2c12.7-17.2,25.4-34.3,38.1-51.5
		c0.1-0.2,0.3-0.4,0.4-0.5c0.1-0.1,0.2-0.2,0.3-0.2c0.1,0,0.2-0.1,0.5-0.1c0.6,0.4,1.3,0.9,2.1,1.4c11.1,8,22.6,15.3,34.5,21.8
		c28.3,15.3,58.2,26.2,89.9,32.4c13.2,2.6,26.4,4.3,39.8,5.3c0.5,0,1,0.2,1.5,0.3c0.1,5-2.8,48.2-3.3,50.8
		c-11.1,0.7-52.2-5.5-65.7-10c0.5-3.9,6.2-26.5,7.3-28.5c4.1,0.9,8.2,1.8,12.3,2.6c4,0.8,8,1.6,12,2.4c4.1,0.7,8.2,1.2,12.4,2
		c0,2.3-0.3,4.4-1,6.7c-5.2-0.8-10.2-1.5-15.3-2.4c-5.1-0.9-10.2-2-15.3-3c-1.3,3.2-3.6,13.4-3.4,15.5c8.9,2.8,44.1,8.2,50.2,7.4
		c1-9.3,1.5-18.7,2.4-28.1c0.3-2.8,0.4-5.7,0.6-8.5c0-0.1-0.1-0.2-0.1-0.3c-0.1-0.1-0.1-0.2-0.2-0.2c-7.4-1-14.9-1.9-22.3-2.9
		c-7.5-1.1-15-2.5-22.4-4.3c-7.2-1.8-14.5-3.6-21.9-5.5c-0.9,2.9-1.7,5.7-2.6,8.5c-4.6,15.1-9.2,30.2-13.7,45.3
		c-0.3,0.9-0.8,1.9-0.4,3.1c29.6,9,60,14,90.9,15.8c6.6,0.4,14.1,0.5,16.8-0.1c0-2.6,0-5.4,0.1-8.1c0-2.7,0-5.5,0-8.2
		c0-2.7,0-5.5,0-8.2c0-2.7,0-5.5,0.1-8.2c0-2.8,0-5.7,0.1-8.5c0-2.7,0-5.5,0.1-8.2s0-5.5,0.1-8.2c0.1-2.7-0.2-5.4,0.3-8.1
		c0.5,0,1-0.1,1.4-0.1c6.8-0.2,13.6-0.4,20.4-0.7c8-0.3,15.9-1.2,23.7-2.3c8.4-1.1,16.8-2.7,25.1-4.5c19.3-4.2,38.1-10.3,56.3-18.1
		c14.9-6.4,29.3-13.9,43.1-22.5c0.6-0.4,1.3-0.7,2-1c0.3,0.4,0.6,0.7,0.7,1c8.6,13.5,17.2,27,25.8,40.5c0.3,0.5,0.5,1.2,0.8,1.7
		c-11.8,8.6-52,29.1-59.3,30.2c-1.7-3.2-10.1-24.3-10.9-27.2c3.8-1.6,7.6-3.3,11.5-5c3.7-1.7,7.4-3.4,11.1-5.2
		c3.7-1.8,7.4-3.8,11.3-5.7c1.5,1.8,2.2,3.8,3.4,5.8c-9.3,5.2-18.8,9.5-28.2,13.8c1.3,4.2,4.9,12.5,6.5,14.7
		c15.5-6.7,30.5-14.4,45.2-23.3c-6.5-10.8-13-21.4-19.5-32.1c-0.8,0.4-1.4,0.7-2,1c-18.4,11-37.6,20-57.8,27.2
		c-0.6,0.2-1.2,0.6-1.9,0.9c6.5,18.7,12.9,37.2,19.3,55.6c5.8-1.1,32-11.9,46.9-19.5c17.5-8.9,34.3-19,50.2-30.4
		c-0.1-0.4-0.1-0.5-0.1-0.6c0-0.1-0.1-0.2-0.2-0.3c-0.1-0.2-0.2-0.4-0.4-0.6c-12-16.8-24.1-33.6-36.1-50.4c-0.3-0.4-0.5-0.7-0.8-1.1
		c-0.1-0.2-0.3-0.4-0.4-0.6c-0.1-0.1-0.1-0.2-0.1-0.3c0-0.1,0.1-0.2,0.1-0.4c4.2-3.3,8.6-6.5,12.8-9.9c4.3-3.5,8.6-7.1,12.8-10.8
		c4.1-3.6,8.1-7.4,11.9-11.2c3.9-3.8,7.7-7.7,11.4-11.8c3.8-4.1,7.4-8.3,11-12.6c3.5-4.2,6.8-8.5,10.1-12.9c3.3-4.5,6.5-9,9.6-13.7
		c3-4.5,5.9-9.2,8.7-13.8c2.8-4.7,5.4-9.5,7.9-14.3c2.6-4.9,5-9.9,7.3-15c2.3-4.9,4.4-9.9,6.5-14.8c3.6,0.9,45.3,17.5,47.5,18.9
		c-3.1,11.3-23.5,51.4-30.1,59.3c-0.4-0.2-0.8-0.3-1.2-0.5c-7.5-4.7-15-9.4-22.5-14.1c-0.4-0.3-0.8-0.7-1.2-1.1
		c1.7-2.8,3.3-5.4,4.8-8c1.6-2.7,3.2-5.5,4.7-8.3c1.5-2.7,2.9-5.4,4.3-8.1c1.5-2.8,2.6-5.7,4.5-8.4c2,1.1,4.1,1.7,5.8,3.1
		c-0.4,0.9-0.8,1.7-1.2,2.6c-3.8,7.8-7.9,15.3-12.3,22.8c-0.4,0.7-0.8,1.6-1.1,2.3c4.5,3.2,11.4,7.1,13.8,8
		c8.7-14.5,16.3-29.5,22.9-45.4c-11.6-5-23.1-9.8-34.8-14.6c-4.5,10.6-9.4,20.8-14.9,30.7c-5.5,9.9-11.5,19.5-18,29
		c16.3,11.4,32.4,22.6,48.5,33.8c6.4-6.8,25.7-40.3,34.7-60.2c7.4-16.4,13.9-33.3,14.3-37.6c-1.1-0.4-2.3-0.8-3.4-1.2
		c-19-6.3-38.1-12.7-57.1-19.1c-0.6-0.2-1.1-0.6-1.8-0.9c1.4-4.6,2.8-9.1,4.1-13.5c1.3-4.5,2.4-9,3.5-13.5c1.1-4.5,2-9.1,2.9-13.7
		c0.9-4.6,1.6-9.2,2.3-13.8c0.7-4.6,1.3-9.2,1.8-13.9c0.5-4.6,0.8-9.3,1-13.9c0.2-4.5,0.4-9.1,0.5-13.6c0.1-4.7,0-9.3-0.1-14
		c-0.1-4.7-0.4-9.3-0.7-14c-0.3-4.6-0.8-9.3-1.3-13.9c-0.6-4.6-1.2-9.2-2-13.8c-0.8-4.6-1.7-9.1-2.6-13.7c-0.8-4.5-2.2-9-2.9-13.6
		c1-0.3,1.7-0.6,2.4-0.8c15.5-3.9,31-7.9,46.5-11.8c0.1,0,0.2,0,0.3,0c0.1,0,0.2,0.1,0.5,0.3c5.1,19.4,8.2,39.3,10.1,59.4
		c0.2,2,0.4,4,0.2,6.2c-9.3,0.6-18.5,1.3-27.7,1.9c-0.3,0-0.7,0-1,0c-0.1,0-0.2-0.1-0.3-0.1c-0.1-0.1-0.2-0.1-0.5-0.4
		c-0.9-12-2.4-24.2-4.5-36.2c0-0.1,0-0.2,0.1-0.3c0-0.1,0.1-0.2,0.3-0.5c1.9-0.2,3.9-1.1,6.3-0.9c0.8,5.3,1.5,10.5,2.3,15.6
		c0.8,5.1,1,10.4,2,15.5c5.3-0.5,10.4-0.9,15.5-1.4c0.3-2.1,0-4-0.2-5.9c-0.8-6.4-1.5-12.9-2.6-19.2c-1.3-7.6-2.9-15.2-4.3-22.7
		c-0.2-0.8-0.5-1.6-0.8-2.5c-0.8,0.1-1.3,0.1-1.9,0.2c-10.9,2.6-21.9,5.1-32.8,7.7c-0.6,0.1-1.2,0.5-1.9,0.7c0.7,3.3,1.4,6.4,2,9.5
		c0.6,3.2,1.2,6.5,1.8,9.7c0.5,3.1,1.1,6.3,1.5,9.4c0.5,3.3,0.8,6.5,1.2,9.8c0.4,3.2,0.7,6.3,1,9.5c0.3,3.3,0.4,6.6,0.6,9.9
		c0.3,3.1,0,6.3,0.5,9.5c0.8,0,1.4,0.1,1.9,0.1c18.5-0.3,37-0.7,55.6-1c0.5,0,1.1-0.2,1.7-0.3c0-0.8,0.1-1.5,0.1-2.2
		c-0.1-11.5-1.1-22.9-2.4-34.3c-1.2-10.9-3-21.8-5.2-32.6c-2.5-12.1-5.5-24.1-9.2-35.9c-0.3-0.8-0.6-1.6-1.1-2.6
		c-3.1,1-6,1.8-8.9,2.8c-17.2,5.4-34.4,10.9-51.6,16.3c-0.8,0.3-1.7,0.8-2.7,0.3c-1.2-3.4-2.4-7-3.6-10.5c-1.3-3.5-2.6-7-4-10.5
		c-1.4-3.6-2.9-7.2-4.5-10.7c-1.5-3.4-3.1-6.8-4.7-10.2c-1.6-3.4-3.3-6.7-5.1-10c-1.8-3.3-3.6-6.6-5.4-9.8c-1.9-3.3-3.9-6.7-5.9-9.9
		c-2-3.2-4-6.3-6.1-9.4c-2.1-3.1-4.3-6.2-6.5-9.2c-2.2-3-4.5-6-6.8-9c-2.4-3-4.8-6-7.3-9c-2.4-2.9-4.9-5.7-7.4-8.5
		c-2.5-2.8-5.1-5.5-7.7-8.2c-2.6-2.7-5.3-5.3-8-7.9c-2.8-2.7-5.7-5.3-8.5-7.8c-2.8-2.5-5.6-4.9-8.5-7.4c10.4-12.6,20.7-25,31-37.5
		c0.4-0.5,0.9-1,1.3-1.5c0.1-0.1,0.2-0.1,0.3-0.2c0.1,0,0.2,0,0.3,0c11,7.7,42.8,39.6,47,47c-3.4,3.4-20.3,17.4-22.7,18.7
		c-8-9.5-16.5-18.6-25.7-27.4c1.6-1.6,2.9-3.3,4.7-4.8c0.8,0.7,1.5,1.2,2.1,1.9c5.9,6.1,11.8,12.3,17.7,18.5
		c0.7,0.7,1.4,1.4,2.1,2.1c3.5-2.4,10.2-8.4,11.9-10.6c-11.1-12.7-23.1-24.6-35.9-35.6c-0.4,0.3-0.8,0.5-1,0.7
		c-7.8,9-15.6,18.1-23.3,27.1c-0.1,0.1-0.1,0.2-0.1,0.3c0,0.1,0,0.2,0,0.6c8.4,7.3,16.5,15.1,24.2,23.3c7.8,8.3,15,17,22.1,26.1
		c4.2-2.8,8-5.9,11.9-8.8c4-3,8-6,12-9.1c3.9-3,7.8-5.9,11.7-8.9c3.9-3,8-5.9,11.9-9.2c-11.1-14.7-23.1-28.3-36.1-41.1
		c-13.6-13.5-36.2-32.5-41.9-35.3c-2.1,2.9-4.3,5.8-6.5,8.7c-2.2,2.9-4.3,5.8-6.5,8.8c-2.2,2.9-4.3,5.8-6.5,8.8c-2.2,3-4.5,6-6.7,9
		c-2.2,2.9-4.3,5.9-6.5,8.8c-2.2,2.9-4.2,5.9-6.6,8.6c-7.3-4.8-14.4-9.7-21.7-14.3c-7.3-4.6-14.8-8.8-22.5-12.7
		c-7.7-3.9-15.5-7.5-23.5-10.8c-8.1-3.3-16.3-6.3-24.6-8.9c-8.2-2.6-16.5-4.9-24.9-6.8c-8.4-1.9-16.9-3.6-25.4-4.7
		c-8.5-1.1-17.1-2-25.8-3c1.1-16.8,2.2-33.6,3.2-50.3c0-0.1,0.1-0.2,0.2-0.3c0.1-0.1,0.2-0.2,0.3-0.2c15.2,0.1,50.9,5.5,65.5,10.1
		c0,0.4,0.1,0.9,0,1.3c-2.4,9.1-4.4,18.3-7,27.4c-12.3-3-24.6-5.3-37-7.1c0.2-2.3,0.3-4.4,1-6.6c3.6,0.2,7.1,0.9,10.5,1.5
		c3.4,0.5,6.7,1.3,10,1.8c3.4,0.5,6.8,1.6,10.4,2c0.6-2.7,1.3-5.2,1.8-7.8c0.5-2.5,1.5-5,1.4-7.6c-7.8-2.7-43.8-8.3-50.4-7.6
		c-0.3,4.1-0.7,8.3-1,12.5c-0.3,4.1-0.8,8.1-1,12.2c-0.2,4.1-1.1,8.3-0.7,12.4c7.6,1,15,1.9,22.4,2.9c7.5,1.1,15,2.5,22.4,4.3
		c7.2,1.8,14.4,3.6,21.8,5.5c0.2-0.6,0.5-1.1,0.6-1.6c5.3-17.7,10.7-35.4,16-53.1c0.2-0.6,0.2-1.3,0.4-2
		c-30-9.1-60.4-14.2-91.5-15.9c-6.8-0.4-13.8-0.4-16.4,0.1c0,1.2-0.1,2.4-0.1,3.6c-0.1,19.4-0.2,38.9-0.4,58.3
		c0,1.2,0.3,2.5-0.3,3.6c-0.3,0.1-0.5,0.2-0.8,0.2c-0.8,0-1.6,0-2.4,0c-17.9,0.1-35.6,1.6-53.2,4.6c-15.5,2.7-30.6,6.4-45.5,11.3
		c-23.6,7.8-45.9,18.3-67,31.3c-1,0.6-2,1.5-3.3,1.8c-0.6-0.9-1.1-1.6-1.6-2.4c-8.5-13.4-17-26.8-25.5-40.3
		c-0.1-0.1-0.1-0.2-0.1-0.3c0-0.1,0-0.2,0-0.3c11.3-8.3,50.6-28.4,59.1-30.2c1.4,2.5,10.1,23.9,10.9,27.2c-0.3,0.2-0.7,0.5-1.1,0.6
		c-10.7,4.4-21.2,9.3-31.4,14.7c-0.5,0.2-1,0.3-1.6,0.6c-1.1-1.9-2-3.7-3.1-5.6c1.1-0.6,1.9-1.2,2.8-1.6c7.7-4.1,15.6-7.9,23.6-11.4
		c0.7-0.3,1.3-0.7,2-1.1c-2.2-4.9-4-9.8-6.3-14.5c-12.1,4.7-40.4,19.4-45.3,23.5c0.1,0.2,0.2,0.4,0.3,0.6c6.1,10,12.1,20,18.2,30
		c0.3,0.4,0.7,0.8,1,1.2c6.8-3.7,13.2-7.5,19.9-10.8c6.8-3.4,13.7-6.7,20.6-9.7c6.8-3,13.8-5.6,20.7-8.3c0-0.4,0.1-0.6,0-0.8
		c-6.3-18.2-12.7-36.4-19-54.7c0-0.1-0.1-0.2-0.2-0.2c-0.1-0.1-0.2-0.1-0.5-0.2c-34.4,12-66.6,28.7-96.6,50.2
		c12.9,18,25.7,35.9,38.6,53.9c-1.2,0.9-2.1,1.6-3.1,2.4c-24,17.7-45.2,38.3-63.5,61.9c-17.5,22.7-31.7,47.3-42.6,73.8
		c-0.4,1-0.5,2.2-1.8,2.9c-14-5.5-28.1-11.1-42.2-16.7c-1.5-0.6-2.9-1.2-4.4-1.8c-0.1,0-0.2-0.1-0.3-0.2c-0.1-0.1-0.1-0.2-0.2-0.3
		c4.3-13.5,25.1-54.1,30.5-59.3c8.2,5.1,16.4,10.3,24.7,15.5c-0.3,0.6-0.4,1-0.7,1.4c-6.1,9.7-11.6,19.8-16.7,30.1
		c-0.3,0.6-0.7,1.1-1.1,1.6c-2-1.1-4.1-1.6-5.7-3.1c4.5-9.5,9.5-18.5,14.7-27.4c-2.5-2.1-11.5-7.5-13.8-8.2
		c-8.7,14.5-16.3,29.5-22.9,45.4c11.6,4.9,23.1,9.7,34.6,14.6c3.3-7,6.4-14,9.9-20.7c3.4-6.7,7-13.2,10.9-19.7
		c3.9-6.5,8.1-12.9,12.2-19.4c-15.5-10.8-31-21.6-46.4-32.4c-0.6-0.4-1.1-0.8-1.7-1.1c-0.1-0.1-0.2-0.1-0.3-0.1
		c-0.1,0-0.2,0-0.5,0.1c-15.5,22.3-28.5,46-39,71.1c-5.5,13.1-9,22.8-9.4,26.4C82.4,311,103.2,317.8,124.3,324.9z"/>
	<path class="st0" d="M469.1,373.7c2.5-0.1,5-0.2,7.5-0.3c2.3-0.1,4.5-0.2,6.8-0.2c0.6,0,1.2,0,1.7,0.2c3.9,1.5,8.1,1,12.1,1.9
		c1.4,0.3,2.9,0.2,4.4,0.1c2.8-0.3,5.5,0.1,8,1.1c1.9,0.8,3.9,1.1,6,1c1.9-0.1,3.9-0.1,5.8,0c1.2,0.1,2.5,0.4,3.6,0.9
		c2.9,1.2,5.8,1.9,9,1.5c1.8-0.2,3.6,0.1,5.3,0.8c1.6,0.6,3.2,0.9,5,0.8c0.9-0.1,1.8,0.2,2.7,0.2c1.4,0.1,2.7,0.2,4.1,0
		c2.1-0.4,4-0.1,6.1,0.4c4.2,1,8.1,2.9,12.1,4.4c1.1,0.4,2.1,0.8,3.2,1c1.9,0.3,3.7,0.9,5.4,1.8c0.6,0.3,1.2,0.7,1.9,0.9
		c3.5,0.9,6.3,3,9.5,4.4c1.4,0.6,2.4,1.7,3.2,3c1.6,2.7,3.5,5,6.1,6.7c0.7,0.4,1.2,1.1,1.8,1.6c1.5,1.4,3,2.7,4.6,4.1
		c0.6,0.5,1.2,1,1.8,1.6c0.9,1,1.7,2.2,1.7,3.6c0.1,3.2-0.9,6-3,8.5c-0.6,0.7-1.7,1-2.7,1.3c-2.4,0.7-4.9,1.2-7.3,1.8
		c-3.4,0.9-6.8,0.8-10.2,0.5c-5.1-0.4-10.2-0.9-15.3-1.3c-1.4-0.1-2.7-0.3-4.1-0.4c-1-0.1-2-0.2-3.1-0.2c-3.3-0.1-6.6,0-9.9-0.3
		c-3.7-0.3-7.3,0-10.7,1.6c-4.2,2-8.7,2.6-13.2,2.9c-3.1,0.2-6.1,0.9-8.7,2.6c-2.6,1.6-5.4,2.2-8.4,2.3c-2.4,0.1-4.7,0.6-7,1.2
		c-3.8,1.1-7.6,1.1-11.5,0.8c-2.8-0.2-4.9-1.7-6.7-3.7c-1.2-1.4-1.2-2.9-0.1-4.4c1.3-1.7,3.1-2.8,5.2-2.7c2.4,0.1,4.7-0.3,7-1.2
		c0.6-0.3,1.3-0.4,2-0.4c4.7-0.2,9.2-1.6,13.6-3c2.8-0.8,5.4-2.4,8.1-3.6c0.4-0.2,0.7-0.5,1.1-0.8c0.6-0.5,0.6-1.4,0-1.8
		c-3.7-2.2-7.3-4.7-11.8-5c-1.4-0.1-2.7-0.5-3.8-1.3c-1.1-0.8-2.4-1.3-3.7-1.6c-1.8-0.4-3.5-0.9-5.2-1.5c-4.8-1.8-9.5-3.7-14.3-5.6
		c-0.2-0.1-0.4-0.2-0.6-0.2c-5.8-1.1-10.8-4-16.1-6.4c-0.6-0.3-1.2-0.6-1.9-0.8c-2.5-1-4.2-0.6-5.7,1.6c-0.8,1.1-1.5,2.4-1.7,3.7
		c-0.4,2.8-0.7,5.6,0.1,8.4c0.3,1,0.5,2,0.7,3c0.3,1.6,0.4,3.2-0.2,4.7c-0.6,1.5-0.6,3.1-0.4,4.7c0.2,1.8,0.2,3.6-0.4,5.4
		c-0.1,0.3-0.2,0.7-0.2,1c-0.1,3.6-0.2,7.3-0.1,10.9c0.1,2.1,0.2,4.1-0.4,6.1c-0.3,1.1-0.3,2.3-0.2,3.4c0.2,1.9,0.7,3.8,1.1,5.7
		c0.4,2.2,1.9,3.3,3.9,3.7c0.6,0.1,1.1,0.1,1.7,0.2c2.1,0.2,3.9,1.1,5.5,2.4c1.8,1.5,3.7,3,5.7,4.3c1.9,1.3,3.6,2.8,4.9,4.7
		c1.6,2.4,3.5,4.5,5.5,6.5c0.9,0.9,1.7,1.9,2.1,3.1c1.6,4.6,0.2,7.6-4.3,9.6c-2.1,0.9-4,2-6.1,3.1c-0.9,0.5-1.8,0.9-2.7,1.4
		c-1.5,0.8-3,1.6-4.5,2.5c-0.6,0.3-1.1,0.9-1.7,1.1c-3.1,1.1-5.4,3.4-7.8,5.5c-1,0.9-1.8,2-2.7,3c-0.7,0.8-1.2,1.7-1.9,2.4
		c-1.6,1.5-2.9,3.1-3.3,5.4c-0.3,1.5-1.6,2.5-2.8,3.3c-2.1,1.6-3.9,3.5-5.1,5.8c-1,1.8-1.6,3.7-1.5,5.9c0.1,1.3-0.2,2.7-0.3,4
		c-0.1,2.5-0.2,5-0.3,7.5c0,0.7,0.2,1.3,0.5,2c0.8,1.7,2.4,2.4,4.2,1.9c0.2-0.1,0.5-0.1,0.6-0.2c2.4-1.7,5.2-1.6,7.9-1.3
		c3.3,0.4,6.3-0.6,9.3-1.6c0.9-0.3,1.8-1,2.5-1.7c1-0.9,2.2-1.6,3.6-1.8c1.9-0.3,3.7-1.2,5.3-2.2c2.2-1.4,4.7-2.3,7.2-2.9
		c2.4-0.6,4.8-1.5,7.1-2.4c2.8-1.1,5.6-1.7,8.6-1.9c5.4-0.4,10.6,0,15.9,1.2c0.5,0.1,1.1,0.2,1.7,0.2c3.2,0.2,6.2,1.1,9,2.8
		c0.9,0.6,2.1,0.9,3.1,1.3c0.9,0.4,2,0.7,2.7,1.4c2,2,4,4.1,5.6,6.4c1.7,2.3,1,5.1-1.5,6.4c-3.1,1.7-6.4,2.8-10.1,2.2
		c-4.8-0.8-9.5-0.2-14.2,0.8c-2.8,0.6-5.6,1.2-8.4,1.2c-2.3,0-4.4,0.7-6.4,1.9c-1.5,0.9-3.3,1.5-5,2.2c-1.3,0.5-2.5,1-3.5,2
		c-1.1,1.1-2.3,1.8-3.8,2.2c-0.8,0.2-1.5,0.5-2.2,0.8c-2.6,1.2-5.3,1.9-8.2,2.3c-1.7,0.3-3.3,0.8-4.9,1.2c-1.8,0.5-3.3,1.5-4.6,2.8
		c-0.8,0.9-1.9,1.6-2.9,2.3c-2.6,1.7-3.4,3.3-2.6,6.3c0.9,3.2,1.9,6.3,3.1,9.4c0.4,1,1.1,2,1.9,2.8c2.7,3,4.7,6.4,6.3,10
		c1.4,3.1,2.8,6.2,5.2,8.7c1.3,1.3,1.9,3.1,2.3,4.9c0.4,2.1,1.2,3.9,2.4,5.6c0.6,0.8,1,1.8,1.3,2.8c1.1,4.2,1.5,8.4,1,12.8
		c-0.6,5.1-3.1,9.2-5.2,13.6c-0.5,1-1.4,1.8-2.4,2.4c-1.2,0.8-2.6,1.3-4,1.8c-2.1,0.8-4.3,1.4-6.5,2.1c-0.6,0.2-1.3,0.5-2,0.5
		c-3.2-0.1-6.4,0.4-9.5-0.4c-2.8-0.7-5.4-0.5-8,0.4c-1.7,0.6-3.5,0.9-5.3,0.9c-1.3,0-2.7,0.3-4,0.7c-2.1,0.7-4.2,1-6.3,1
		c-3.2,0-6.4,0.2-9.5,0.3c-1.3,0-2.5,0.5-3.5,1.3c-2.5,1.9-5.3,2.5-8.4,2c-2.2-0.3-4.5-0.3-6.8-0.4c-2.1-0.1-4-0.7-6-1.1
		c-3.4-0.7-6.9-1.2-10.1-2.7c-1-0.4-2.2-0.3-3.4-0.2c-3.3,0.3-6.3-0.4-9.1-2.2c-1-0.7-2.2-1.2-3.4-1.4c-5.6-1.2-11-2.9-16.3-4.7
		c-5.2-1.8-8.4-7.9-6.7-13.2c1.5-4.8,4.2-9,7.4-12.9c1.2-1.5,2.3-3.1,3.5-4.6c1.5-1.8,3.1-3.6,4.6-5.4c0.6-0.7,1.4-1.2,1.9-2
		c3.2-5,7.2-9.3,10.7-14.1c1.3-1.7,2.8-3,4.8-3.7c2.2-0.8,3.9-2.2,5.2-4.2c1.6-2.6,3.8-4.7,6.8-5.9c2.2-0.9,4-2.6,6-3.8
		c3.3-1.9,6.7-3.9,10.1-5.6c2.4-1.2,4.4-2.8,6.3-4.6c2-1.9,2.6-4.5,1.6-6.9c-1.6-3.9-1.8-8-1.7-12.1c0-2.2-0.2-4.3-0.9-6.4
		c-0.7-1.9-0.7-3.8-0.2-5.7c0.2-0.9,0.4-1.8,0.4-2.7c-0.1-2.8,0.7-5.4,1.5-8c0.5-1.5,0.8-3.1,0.9-4.6c0.1-1.9,0.5-3.6,1.5-5.2
		c1.4-2.4,2.2-5,2.5-7.7c0.3-3.3,1.5-6.1,3.8-8.5c1.1-1.1,1.8-2.6,2.6-4c0.4-0.7,0.6-1.5,0.7-2.3c0.3-1.6-0.5-2.6-2-3.1
		c-2.1-0.6-4.2-1.1-6.2-1.6c-0.8-0.2-1.6-0.3-2.4-0.2c-2.4,0.2-4.5-0.6-6.5-1.8c-1.6-1-3.2-1.6-5-2c-2.4-0.6-4.7-1.5-7.1-2.5
		c-1.7-0.7-3.2-1.8-4-3.5c-1.8-3.9-4.4-7.4-5.9-11.5c-1.1-3-1.2-6-0.7-9c0.5-3,2.2-5.2,4.2-7.3c1.2-1.2,2.7-1.7,4.4-1.3
		c2,0.5,3.9,1.1,5.9,1.7c0.4,0.1,0.8,0.4,1.3,0.5c1.2,0.4,2,0,2.4-1.1c0.1-0.4,0.3-0.9,0.3-1.3c0.3-3.7,0.8-7.5-0.6-11.1
		c-0.6-1.6-0.4-3.1,0.2-4.6c1.4-3.4,2.7-6.7,4.1-10.1c1.6-4,0.6-5.8-3.6-6.3c-1.7-0.2-3.1,0.1-4.5,1.1c-3.6,2.5-7.4,4.9-10.7,7.8
		c-2.5,2.2-5.2,4-7.8,6c-0.7,0.6-1.4,1.1-2,1.8c-2.3,2.5-4.5,5.2-7.3,7.1c-0.1,0.1-0.2,0.1-0.2,0.2c-3.1,4.5-7.3,8.1-9.4,13.3
		c-0.8,1.9-2,3.6-3.5,5c-1.7,1.6-3,3.4-4.3,5.3c-1.4,2-3,4-4.7,5.8c-1.5,1.6-2.8,3.3-3.7,5.3c-1,2.2-2.3,4.2-4.4,5.5
		c-0.8,0.4-1.4,1.2-1.9,1.9c-2.2,3.1-4.9,5.6-8,7.8c-3.4,2.6-6.7,5.5-9,9.2c-1.4,2.2-2.9,4.3-4.4,6.5c-1.6,2.4-3.9,3.7-6.4,5
		c-2.8,1.4-5.5,2.7-8.3,4c-3.8,1.7-7.1,4-10.6,6.1c-1.4,0.9-2.9,1.8-4.4,2.5c-2,1-3.7,2.2-5.1,3.9c-0.6,0.7-1.2,1.3-1.8,2
		c-2.9,3.6-6.7,6-10.5,8.5c-1.2,0.8-2.4,1.3-3.8,1.3c-1.9,0.1-3.5,0.7-5.2,1.6c-1,0.5-2.1,1-3.2,1.2c-4.8,1.1-9.3,3-13.9,4.6
		c-1.3,0.5-2.6,0.8-3.9,1.1c-1.9,0.3-3.8,0.9-5.4,1.9c-3.3,2-7,2.9-10.7,3.2c-4.5,0.3-8.8-0.7-12.1-4.3c-1.7-1.9-2.6-4-2.6-6.5
		c0-2.5,0.6-4.9,1.8-7.2c3.9-7.4,8.9-14,14.2-20.4c1-1.2,1.9-2.6,2.8-3.9c0.8-1.2,1.8-2.3,3.2-3c2.8-1.3,5-3.5,7.3-5.5
		c2.1-1.9,4.4-3.6,6.6-5.3c1.4-1.1,3-1.6,4.8-1.5c1.2,0.1,1.9,1.1,1.4,2.1c-0.3,0.7-0.7,1.4-1.2,2c-1.3,1.6-2.7,3.1-4,4.6
		c-2.2,2.5-4.5,4.8-6.6,7.3c-2.8,3.4-4.8,7.2-6.3,11.3c-0.4,1.1-0.4,2.5-0.3,3.7c0.1,1.4,1.4,2.2,2.7,1.8c0.9-0.2,1.7-0.7,2.5-1.1
		c1.7-0.9,3.4-1.8,5.1-2.7c0.2-0.1,0.4-0.2,0.6-0.3c3.5-2.4,7.2-4.3,10.3-7.2c0.9-0.9,1.8-1.8,2.8-2.5c2.6-1.9,5-3.9,6.9-6.5
		c1-1.3,2.3-2.2,3.8-2.8c3.2-1.3,5.9-3.3,8.5-5.6c1.6-1.5,3.4-2.7,5.2-3.9c1.5-1,3-2,4.1-3.5c1.5-1.9,3.3-3.5,5.4-4.7
		c2.4-1.4,4.4-3.1,6.1-5.3c2.4-3.1,5.4-5.8,8.7-8.2c1.4-1,2.6-2.1,3.9-3.3c1.1-1,2.2-2,3.2-3c0.9-1,1.8-2,2.7-3
		c1.1-1.3,2.1-2.7,3.5-3.7c3.2-2.3,5.6-5.3,7.9-8.4c3.2-4.2,6.4-8.3,8.9-12.9c0.5-0.9,1.2-1.7,1.8-2.5c1.3-1.7,2.9-3.3,3.9-5.2
		c2.5-4.8,6.4-8.5,9.7-12.6c2.3-2.9,4.7-5.8,7.3-8.5c2.6-2.7,4.9-5.7,7.1-8.7c1.8-2.4,3.7-4.6,6.1-6.4c1.9-1.4,3.2-3.1,4.2-5.3
		c0.7-1.6,1.9-3.1,3-4.5c3.5-4.1,6.7-8.3,8.7-13.4c0.5-1.3,1.2-2.5,1.4-3.8c0.7-3.8,2.4-7,4.3-10.3c0.6-1,1-2.1,1.2-3.1
		c0.3-1.9,0.3-3.8,0.4-5.8c0-0.8-0.1-1.6-0.3-2.4c-0.6-2.2-1.5-2.9-3.7-2.4c-2.6,0.5-4.7-0.1-6.4-2.1c-2.6-3-5.9-3.1-9.4-2.4
		c-1.9,0.4-3.8,0.9-5.6,1.4c-2.8,0.8-5.5,1.3-8.4,0.9c-3.6,0.7-7.2-0.2-10.9,0.2c-2.8,0.3-5.6-0.5-8.3-1.4c-1.8-0.6-3.2-1.8-4.2-3.4
		c-2.1-3.5-5.2-6-7.9-8.9c-1.8-1.9-3.1-3.9-3.4-6.5c-0.1-0.9-0.4-1.8-0.7-2.6c-1-3.7-0.4-7.2,1-10.6c0.5-1.1,1.3-2.1,2.1-3.1
		c1.4-1.8,3.3-2.8,5.7-2.5c2.3,0.3,4.5-0.1,6.6-1.2c1.4-0.8,3-0.8,4.6-1c1.7-0.2,3.4-0.5,5-0.8c0.2,0,0.4-0.2,0.6-0.2
		c6.6-1,12.8-3.7,19.3-5.3c2.4-0.6,4.4-1.7,6.3-3.2c3.1-2.3,6-4.8,9.6-6.4c0.8-0.4,1.5-1,2.1-1.7c1.3-1.5,2.8-2.7,4.6-3.4
		c4.5-1.8,7.4-5.1,9.3-9.4c0.8-1.9,1.9-3.6,3.3-5.1c1.8-1.9,2.5-4.3,2.5-6.9c0-0.9,0-1.8-0.1-2.7c-0.2-2-0.3-4.1,0-6.1
		c0.2-1.4,0.1-2.7-0.3-4c-0.5-1.5-0.8-3.1-1.1-4.6c-0.4-2.5-1.4-3.5-3.9-4.1c-0.4-0.1-0.9-0.2-1.3-0.2c-3.1-0.3-5.3-2.1-6.6-4.7
		c-2.6-5-3.5-10.3-1.5-15.8c0.2-0.5,0.3-1.2,0.6-1.6c2.3-2.6,4.7-5.3,8.3-6.2c3.6-0.9,7.1-1.1,10.7,0.3c1.2,0.5,2.7,0.6,4,0.5
		c3.2-0.3,5.8,0.4,8,2.9c0.9,1.1,2.2,1.7,3.6,1.8c1.7,0.2,3,0.9,4.3,2c2.1,1.7,4.3,3.4,6.4,5.1c0.9,0.8,1.8,1.8,2.5,2.8
		c2,2.8,4.5,5.1,7.3,7.1c0.6,0.5,1.3,0.9,1.9,1.4c1.3,1,2.1,2.3,2.5,3.9c0.8,3.3,2.3,6.4,2.7,9.8c0.2,1.5,1.2,2.6,2.5,3.5
		c1.8,1.4,3.5,2.8,5.3,4.2c0.5,0.4,1.1,0.9,1.7,1.1c3.7,1,7.3,1.6,10.8-0.8c0.3-0.2,0.6-0.4,0.8-0.6c2.7-2.1,5.4-1.9,8.2-0.1
		c0.4,0.3,0.8,0.5,1.1,0.8c1.5,1.3,3.2,2.1,5.2,2.5c2.7,0.4,4.5,2.1,5.9,4.3c1.1,1.8,2.2,3.4,3.9,4.7c3.2,2.5,3.5,10.4-1.1,12.8
		c-0.7,0.4-1.3,0.9-2,1.3c-7,3.8-12.7,9.1-18.2,14.7c-0.2,0.2-0.3,0.4-0.5,0.5c-2.8,2.1-5.6,4.2-7.9,6.9c-0.7,0.9-2.1,1.3-3.3,1.8
		c-1.9,0.9-3.1,2.3-3.3,4.4c-0.6,6.2-2,12.3-1.9,18.6c0,0.6,0.1,1.2-0.1,1.7c-1.2,4-0.9,8.1-1.3,12.2c0,0.5-0.1,0.9-0.1,1.4
		c0.3,3.3,0.1,6.6-1.1,9.7c-0.2,0.6-0.3,1.4-0.2,2c0.3,2.6-0.3,4.9-1.2,7.3c-0.6,1.6-0.8,3.3-1,5c-0.2,1.8-0.2,3.6-1.1,5.3
		c-0.1,0.2-0.2,0.4-0.2,0.6c-0.5,2.1,0.3,3.5,2.5,4c0.7,0.2,1.3,0.2,2,0.2c0.8,0.1,1.6,0,2.4,0.1c0.8,0,1.6,0.1,2.4,0.2
		C469.1,373.5,469.1,373.6,469.1,373.7z M409.3,627.7c1.3-0.1,2.6-0.1,3.7-0.4c4-1.2,8.2-1.7,12.2-3c4.1-1.4,8-3.1,11.5-5.7
		c0.9-0.7,2-1.1,3-1.6c0.7-0.4,1.5-0.6,2.1-1.1c1.4-1,2-2.4,1.8-4.1c-0.1-0.8-0.3-1.6-0.7-2.3c-1.2-2.2-2.3-4.4-3.7-6.5
		c-1.4-2.1-2.7-4.2-3.2-6.7c-0.7-3.3-2.9-5.9-4.6-8.7c-0.9-1.4-2.3-2.1-4.1-2c-3.3,0.1-6.3,0.8-8.7,3.2c-0.5,0.5-1,0.9-1.5,1.4
		c-1.5,1.2-3,2.5-4.6,3.5c-2.1,1.4-4,2.9-5.7,4.8c-1.2,1.3-2.6,2.5-4.2,3.4c-5.1,2.9-8.3,7.3-9.4,13.1c-0.4,2.3-0.3,4.4,0.4,6.7
		c0.9,2.7,2.6,4.1,5.3,4.5c2.2,0.3,4.5,0.8,6.7,1.1C406.9,627.4,408.1,627.6,409.3,627.7z"/>
	<path id="XMLID_38_" class="st0" d="M273.9,162.7c1.7,3.2,3.2,6.1,4.8,8.9c1.5,2.7,2.8,5.7,4.7,8.4c5.6-2.9,11.1-5.9,16.7-8.9
		c-2.9-6-6.2-11.5-9.1-17.3c2.2-1.7,12.3-7.2,15.2-8.2c2,2.6,19.5,34.8,26.8,49.5c-0.5,0.4-0.9,0.8-1.5,1.1
		c-4.1,2.2-8.2,4.4-12.3,6.6c-0.5,0.3-1,0.4-1.6,0.7c-3.6-6.7-7.2-13.3-10.7-19.8c-2.5,0.9-12.1,5.9-16.8,8.8
		c0.3,0.7,0.6,1.4,0.9,2.1c2.7,5.1,5.5,10.2,8.2,15.3c0.5,0.9,0.9,1.8,1.4,2.9c-5.1,2.8-10.1,5.4-15,8.1c-0.4-0.4-0.7-0.6-0.9-0.8
		c-8.7-16.3-17.5-32.5-26.3-49C263.5,168.1,268.5,165.5,273.9,162.7z"/>
	<path id="XMLID_37_" class="st0" d="M609,224.8c-2.5,2.7-4.9,5.2-7.5,7.9c0.6,0.6,1,1.2,1.6,1.8c5.5,5.2,11.1,10.4,16.6,15.6
		c1.2,1.2,2.4,2.3,3.7,3.6c-2.9,3.1-5.7,6.1-8.4,9c-0.3,0-0.4,0-0.5,0c-0.1,0-0.2,0-0.3-0.1c-10.9-10.2-21.7-20.3-32.6-30.5
		c-0.6-0.5-1.3-1-2-1.5c3.4-4,6.7-7.3,10-10.8c3.2-3.4,6.4-6.8,9.6-10.2c3.3-3.5,6.5-7,9.8-10.4c3.2-3.4,6.2-6.8,9.6-10
		c2.4,1.6,30.1,27.4,34.4,32c-2.6,2.8-5.2,5.6-8,8.5c-0.6-0.4-1.2-0.7-1.6-1.1c-5.8-5.4-11.6-10.9-17.4-16.3
		c-0.8-0.8-1.7-1.5-2.7-2.4c-2,2.1-3.9,4.1-6,6.3c0.6,0.6,1,1.2,1.5,1.7c5.3,5,10.6,10,15.9,14.9c0.7,0.7,1.4,1.4,2.2,2.3
		c-2.5,2.8-5,5.4-7.7,8.2c-0.6-0.5-1.3-0.9-1.8-1.4c-5.1-4.8-10.3-9.6-15.4-14.5C611,226.6,610.1,225.8,609,224.8z"/>
	<path id="XMLID_36_" class="st0" d="M587.2,191.9c-1.7,3-3.2,5.7-4.8,8.3c-0.3,0.5-0.6,0.9-1,1.5c-4.1-2.1-7.9-4.5-11.9-6.7
		c-3.8-2.2-7.7-4.4-11.6-6.7c-2.3,3-3.7,6.3-5.7,9.5c4.4,2.8,8.8,5.2,13.1,7.7c4.3,2.5,8.6,4.9,13.1,7.6c-2.1,3.7-4.2,7.3-6.2,10.9
		c-0.5-0.2-0.9-0.2-1.3-0.4c-13.1-7.5-26.1-15.1-39.2-22.6c-0.3-0.2-0.5-0.4-0.8-0.6c0-0.2,0-0.3,0-0.4c0-0.1,0-0.2,0-0.3
		c9.1-15.8,18.2-31.7,27.3-47.5c0.2-0.3,0.4-0.5,0.6-0.7c0.2-0.1,0.3-0.2,0.4-0.2c0.1,0,0.2,0.1,0.3,0.1
		c12.6,7.2,25.2,14.5,37.8,21.7c0.6,0.3,1.2,0.7,1.7,1.1c0.2,0.1,0.3,0.3,0.6,0.6c-1.9,3.3-3.8,6.6-5.8,10.1c-1-0.5-1.8-0.8-2.5-1.2
		c-6.8-3.9-13.6-7.8-20.3-11.7c-0.9-0.5-1.8-0.9-2.8-1.5c-1.5,2.6-2.9,5.1-4.5,7.7C571.4,182.7,579.1,187.2,587.2,191.9z"/>
	<path id="XMLID_35_" class="st0" d="M353.3,152.6c8.8-2,17.4-4.4,26.3-6.4c1.3,3.6,1.9,7.1,2.9,10.8c-0.8,0.3-1.4,0.7-2.1,0.9
		c-7.4,1.9-14.7,3.7-22.1,5.5c-0.6,0.2-1.2,0.4-2.1,0.7c0.7,3.6,1.5,7.1,2.7,10.7c9.7-2.4,19.3-4.8,28.8-7.2c1.1,1.9,2.7,7.8,3.3,12
		c0,0.1-0.1,0.2-0.1,0.3c-0.1,0.1-0.2,0.2-0.3,0.2c-14.7,3.7-29.4,7.4-44.1,11.1c-0.4,0.1-0.9,0.1-1.6,0.2c-1.9-5.9-3.1-12-4.7-18
		c-1.6-6.1-3.1-12.3-4.6-18.5c-1.5-6-3-12.1-4.5-18.1c2.5-1.2,36.8-9.9,45.2-11.6c1.1,1.8,2.4,6.4,3.2,11.5c-4.6,1.5-9.3,2.4-14,3.6
		c-4.6,1.2-9.2,2.4-14,3.6C351.4,146.9,352.4,149.6,353.3,152.6z"/>
	<path id="XMLID_34_" class="st0" d="M249.8,197.1c0,0.4,0,0.7-0.1,0.8c-2.7,4-5.5,8.1-8.3,12.3c-0.7-0.2-1.3-0.4-1.9-0.7
		c-4.2-1.8-8-1-11.3,2.2c-3.4,3.2-4.2,7.1-2.7,11.6c0.1,0.2,0.2,0.4,0.3,0.6c3.1,5.9,7.5,10.6,13.3,13.8c3,1.6,6.1,1.3,9.1-0.5
		c1.6-1,2.9-2.2,3.9-3.7c1.6-2.3,2.2-4.7,1.4-7.4c-0.6-2-1.4-4-2.1-6c1.9-1.4,10.3-5.7,13.8-7c0.2,0.1,0.4,0.2,0.5,0.4
		c4.5,7.7,5.3,17.6-0.7,25.6c-3.7,5-8.3,9-13.7,12.1c-7.2,4.1-14.6,3.6-21.9,0.5c-1.3-0.6-2.6-1.3-3.9-2.1
		c-5.6-3.7-10.1-8.5-13.3-14.4c-4.8-8.7-4.5-17.4,0.9-25.8c3.5-5.4,8.2-9.7,13.8-12.9C234.7,192.1,242.3,193.1,249.8,197.1z"/>
	<path id="XMLID_33_" class="st0" d="M641.5,615.5c5.1,4.7,10.1,8.5,14.8,12.8c-2,2.9-4.3,5.3-6.4,7.9c-2.3-1.4-25.6-20.9-27.8-23.3
		c2.1-2.5,4.2-5,6.4-7.7c7.7,0.4,15.5,1.6,23.3,2.2c0-0.2,0.1-0.3,0.1-0.5c0-0.1,0-0.2-0.1-0.3c-4.6-3.9-9.2-7.8-13.7-11.7
		c-0.1-0.1-0.1-0.2-0.3-0.5c1.1-1.6,2.5-3.1,3.8-4.6c1.4-1.7,2.9-3.5,4.1-5.4c5.3-8.5,10.8-16.8,16.2-25.2c0.3-0.5,0.6-0.9,1.1-1.5
		c2.6,1.3,4.8,3,7.4,4.5c-0.3,0.7-0.6,1.3-0.9,1.9c-1.6,2.6-3.3,5.1-5,7.8c3.8,2.8,7.7,5.1,11.5,7.5c3.7,2.4,7.4,4.8,11.1,7.2
		c-0.8,2.3-3.2,6.2-5.8,9.4c-2.6-1.3-4.9-3.1-7.4-4.6c-2.6-1.6-5.2-3.3-7.7-5c-2.5-1.6-5-3.2-7.6-4.9c-1.4,1.4-2.2,3.2-3.3,4.7
		c-1,1.5-2,3-3,4.6c-2.1-0.7-3.6-2.4-5.7-2.8c8.6,7.2,17.1,14.4,25.8,21.8c-2.3,2.7-4.5,5.3-6.7,8
		C657.7,617.2,650,616.2,641.5,615.5z"/>
	<path id="XMLID_32_" class="st0" d="M400,122.6c2.8-0.5,39.5-1.4,43-1.1c0.6,3.8,0.2,7.6,0.5,11.6c-2.9,0.7-5.8,0.3-8.5,0.5
		c-2.8,0.2-5.7,0.2-8.5,0.3c-2.8,0.1-5.6,0.1-8.4,0.2c-0.5,2.8-0.5,6.9,0.1,9.7c3.6,0.2,7.2-0.1,10.8-0.1c3.5,0,7,0,10.7,0
		c0.7,1.8,0.3,3.8,0.4,5.7c0.1,1.8,0.2,3.6-0.1,5.6c-1.9,0.3-3.7,0.2-5.5,0.2c-1.8,0.1-3.6,0.1-5.4,0.1c-1.7,0-3.4,0-5.1,0.1
		c-1.8,0.1-3.6-0.1-5.5,0.2c-0.5,2-0.1,3.9-0.2,5.8c0,1.9,0,3.9,0.1,5.8c0,1.8,0.1,3.6,0.1,5.4c0,1.9,0,3.8,0,5.7
		c-2.6,0.6-12.4,0.9-17.2,0.6c-0.1-0.7-0.3-1.5-0.3-2.2c-0.1-5.6-0.2-11.1-0.3-16.7c-0.2-10.9-0.5-21.8-0.7-32.7
		C399.8,125.7,399.6,124.1,400,122.6z"/>
	<path id="XMLID_31_" class="st0" d="M513.8,134.4c-4.3,13.8-8.4,27.2-12.6,40.8c1.1,0.4,2,0.8,2.9,1.1c6.6,2.1,13.2,4.1,19.8,6.1
		c1.1,0.3,2.1,0.7,3.4,1.1c-1.4,4.4-2.7,8.7-4.1,13.3c-14.4-4.4-28.5-8.8-42.4-13.1c-0.2-0.3-0.2-0.4-0.3-0.5c0-0.1-0.1-0.2,0-0.3
		c5.5-17.6,10.9-35.3,16.4-52.9c0.1-0.2,0.3-0.3,0.6-0.6C502.7,130.9,508.1,132.6,513.8,134.4z"/>
	<path id="XMLID_30_" class="st0" d="M251.6,630.6c-0.3,4-0.8,7.8-1,11.7c-0.2,3.8-1,7.6-0.8,11.8c1.1-0.7,1.6-1.6,2.3-2.3
		c0.7-0.9,1.4-1.8,2.2-2.6c0.6-0.8,1.3-1.6,1.9-2.4c0.6-0.8,1.3-1.6,1.9-2.4c0.7-0.9,1.4-1.8,2.2-2.6c0.6-0.8,1.3-1.5,2-2.3
		c2.7,2.2,5.3,4.3,7.7,6.3c0,0.2,0.1,0.4,0,0.5c0,0.1,0,0.2-0.1,0.3c-0.4,0.5-0.8,1.1-1.2,1.6c-7,8.6-14,17.3-21.2,26
		c-1.6-0.8-2.8-2.1-4.1-3.1c-1.3-1-2.6-2.2-4.1-3.4c0.2-7.6,1.4-15.2,1.7-22.9c-0.9-0.3-1.1,0.4-1.5,0.8c-3,3.6-5.9,7.2-8.8,10.8
		c-0.6,0.8-1.3,1.5-2,2.2c-2.3-1.2-5.7-3.9-8-6.3c1.6-2.6,20.6-26,22.8-28C246.3,626.3,249,628.5,251.6,630.6z"/>
	<path class="st0" d="M375.5,691.1c2.4,0.3,4.5,0.5,6.7,0.8c4.7,0.6,9.4,1.3,14.1,2c1.6,0.2,3.1,0.7,4.6,1.2
		c3.8,1.4,5.7,4.3,5.9,8.3c0.2,5.6-3.2,9.4-7.4,10.5c-0.6,0.2-1.2,0.4-2.1,0.7c2.8,1.7,4.2,4.3,5.2,7.1c1.2,3.2,2.2,6.4,3.5,9.9
		c-0.7,0-1.2,0.1-1.7,0c-2.7-0.3-5.4-0.6-8.1-1c-0.9-0.1-1.7-0.4-2.7-0.6c-1.3-3.4-2.6-6.8-3.9-10.2c-0.4-1.2-0.9-2.4-1.5-3.4
		c-0.9-1.6-2.3-2.4-4.3-2c-0.6,4.6-1.3,9.2-1.9,14c-3.7,0-7.2-0.9-10.9-1.3c0-0.6-0.1-1.1-0.1-1.6c1.3-9.9,2.7-19.8,4-29.7
		C374.9,694.4,375.2,692.9,375.5,691.1z M384.9,706.9c2.8,0.8,5.7,1.1,7.7,0.7c1.5-0.3,2.4-1.3,2.6-2.8c0.2-1.8-0.3-2.8-1.9-3.6
		c-1.5-0.7-5.3-1.2-7.7-0.9C385.4,702.5,384.7,704.6,384.9,706.9z"/>
	<path class="st0" d="M617.2,665c0.3,0.5,0.4,1.1-0.2,1.5c-3.1,2.2-6.3,4.4-9.5,6.6c-3.3-1.7-6.5-3.2-9.6-4.8c-1-0.5-2-1.1-3.1-1.5
		c-1.8-0.7-3.5-0.7-5.2,0.9c1,2.2,2.5,4,3.8,5.9c1.3,2,2.7,3.9,4,5.8c-1.6,1.8-6,5-9.2,6.6c-6.8-9.7-13.6-19.5-20.4-29.4
		c0.6-0.5,1-1,1.5-1.4c4.6-3.3,9.3-6.5,14-9.7c1.8-1.2,3.7-2.3,5.6-3.2c3.9-1.7,7.6-0.8,10.5,2.4c3.6,3.9,3.7,8.8,1.2,12.5
		c-0.3,0.5-0.6,0.9-1.1,1.7c4.2-0.6,7.4,1,10.6,2.7c1.9,1,3.8,2,5.7,3C616.4,665,616.9,665,617.2,665L617.2,665z M585.5,662
		c2.2-1.3,4.2-2.6,5.7-4.3c1.3-1.5,1.4-3.2,0.4-4.6c-1.2-1.5-2.6-1.9-4.5-0.8c-2,1.1-3.8,2.4-5.8,3.7c0.7,1.1,1.3,2,1.9,2.9
		C584,659.9,584.7,660.9,585.5,662z"/>
	<path id="XMLID_25_" class="st0" d="M214.4,591.4c-3.3,2.7-6.4,5.3-9.6,7.9c1.3,2.3,5,6.9,7.6,9.5c1.7-1,3.2-2.4,4.7-3.7
		c1.6-1.3,3.2-2.6,4.9-4c1.4,1.2,2.4,2.8,3.5,4.1c1.2,1.4,2.3,2.8,3.4,4.1c0,0.2,0.1,0.4,0,0.4c0,0.1-0.1,0.2-0.2,0.3
		c-9.1,7.5-18.2,15-27.5,22.6c-2.8-2.6-4.8-5.7-7.3-8.5c3.7-3.4,7.6-6.1,11.2-9.5c-2.5-3.2-5-6.2-7.7-9.4c-3.8,3-7.5,6-11.3,9.1
		c-2.6-2.7-4.8-5.6-6.9-8.4c2-2.1,25.3-21.2,28.1-23C209.6,585.6,211.8,588.3,214.4,591.4z"/>
	<path id="XMLID_24_" class="st0" d="M565.1,658.2c0.4,0.4,0.6,0.4,0.6,0.5c3.4,6.7,6.9,13.3,10.2,20c1.4,2.7,1.7,5.7,1.2,8.6
		c-0.6,3.5-2.3,6.4-5.2,8.5c-3.7,2.7-7.8,4.6-12.2,5.7c-4.5,1.1-8.3-0.3-11.6-3.3c-1.5-1.4-2.7-3.1-3.7-4.9
		c-3.2-6-6.3-12.1-9.3-18.2c-0.2-0.4-0.3-0.8-0.4-1.5c3.2-1.6,6.3-3.2,9.5-4.9c0.5,0.8,1,1.4,1.3,2.1c2.8,5.4,5.6,10.9,8.4,16.4
		c0.5,0.9,0.9,1.8,1.5,2.7c1.2,1.7,3.8,2.8,6,2c0.6-0.2,1.3-0.5,1.9-0.8c2.8-1.6,3.8-4.2,2.7-7.2c-0.4-1.1-1-2-1.5-3.1
		c-2.9-5.8-5.9-11.5-8.9-17.4c0.6-0.4,1-0.9,1.6-1.2C559.8,660.8,562.4,659.5,565.1,658.2z"/>
	<path id="XMLID_23_" class="st0" d="M440.5,731.9c-10.3,0.1-20.2-0.1-30.3-0.2c-0.2-0.6-0.4-1-0.4-1.4c0.1-11.2,0.2-22.5,0.2-33.7
		c0-0.3,0.1-0.6,0.2-0.9c0.1-0.1,0.2-0.2,0.3-0.3c0.1-0.1,0.2-0.1,0.3-0.1c9.3,0.1,18.6,0.1,27.9,0.2c0.3,0,0.6,0.1,1.1,0.2
		c0.5,1.2,0.2,2.4,0.3,3.6c0,1.2-0.1,2.4-0.1,3.8c-2.2,0.2-4.2,0.1-6.3,0.1c-2,0-4.1,0-6.1,0c-2,0-4-0.2-6.2,0
		c-0.4,1.9-0.3,3.5-0.1,5.3c1.9,0.6,3.8,0.2,5.7,0.3c1.8,0.1,3.6,0,5.4,0.1c1.9,0,3.8,0.1,5.7,0.1c0.8,1.2,0.4,2.4,0.5,3.5
		c0.1,1.1,0,2.3,0,3.6c-0.9,0.1-1.6,0.3-2.3,0.3c-4.1,0-8.2-0.1-12.3-0.1c-0.9,0-1.8,0.1-2.9,0.1c-0.1,1.2-0.1,2.4-0.1,3.5
		c0,1.1,0.1,2.2,0.1,3.5c2.3,0.4,4.4,0.2,6.6,0.3c2,0.1,4.1,0,6.1,0.1c2.1,0,4.3-0.1,6.6,0.2C440.7,726.6,440.6,729,440.5,731.9z"/>
	<path id="XMLID_22_" class="st0" d="M280,694.4c-5-2.7-23.9-14.5-26.1-16.3c6.1-9.9,12.3-19.8,18.4-29.7c0.2-0.3,0.5-0.4,0.8-0.8
		c8.4,5.2,16.7,10.4,25.3,15.6c-0.7,1.2-1.3,2.3-1.9,3.3c-0.6,1-1.3,2.1-2.1,3.3c-5.3-3.3-10.5-6.5-15.8-9.7
		c-1.4,1.5-2.2,3.1-3.1,4.8c4.9,3,9.6,6,14.6,9.1c-0.5,1.3-1.3,2.2-1.9,3.3c-0.6,1-1.2,1.9-1.9,3c-4.9-3-9.7-6-14.7-9
		c-0.7,1-1.3,1.9-1.9,2.8c-0.6,1-1.2,1.9-1.9,3.1c5.3,3.6,10.8,6.7,16.2,10.2C283.1,690,281.3,691.9,280,694.4z"/>
	<path id="XMLID_21_" class="st0" d="M330.1,678.1c2.8,0.4,25.4,7.7,28.4,9.2c-0.3,1.1-0.6,2.3-1,3.4c-0.4,1.1-0.5,2.4-1.5,3.6
		c-5.7-1.9-11.4-3.7-17.2-5.5c-1.4,1.4-1.5,3.3-2.2,5.1c2.6,1.3,5.4,1.9,8,2.8c2.7,0.9,5.4,1.8,8.2,2.8c-0.2,2.4-1.2,4.5-2.1,6.9
		c-2.9-0.4-5.5-1.7-8.2-2.4c-2.7-0.8-5.4-1.7-8.3-2.7c-0.4,1.2-0.9,2.2-1.2,3.2c-0.4,1.1-0.7,2.2-1,3.4c5.9,2.4,12.1,3.8,18.1,6.2
		c-0.5,2.7-1.4,5.1-2.4,7.7c-9.7-3.1-19.3-6.2-28.8-9.3C319.5,709.6,327.3,685.2,330.1,678.1z"/>
	<path id="XMLID_20_" class="st0" d="M288.7,685.6c3.2,1.2,6.3,2.5,9.5,3.7c-0.1,1.3-0.2,2.4-0.1,3.5c0.2,3.1,3.6,5.9,6.6,5.6
		c2.9-0.3,4.3-3.1,2.5-5.5c-0.9-1.3-2.2-2.3-3.4-3.3c-1.7-1.5-3.5-2.9-5.1-4.5c-1.1-1.1-2-2.4-2.8-3.8c-3.1-5.5,0.6-12,6.2-13.4
		c2.4-0.6,4.8-0.4,7.1,0.2c3.4,1,6.6,2.4,9.5,4.5c0.8,0.6,1.6,1.3,2.3,2c3.2,3.3,3.8,7,2.2,11.4c-3.4-0.9-6.5-2.4-9.7-3.6
		c0.1-0.7,0.2-1.3,0.1-1.8c-0.1-3-2.6-5.3-5.6-5.3c-0.9,0-1.8,0.3-2.3,1.2c-0.5,0.8-0.4,1.9,0.5,2.8c0.8,0.8,1.7,1.5,2.5,2.3
		c1.8,1.5,3.7,3,5.5,4.6c1.1,1,2.1,2.1,2.9,3.3c3,4.3,2.7,9.2-0.7,13.1c-2.7,3-6.1,4.3-10.1,4c-6-0.6-11.1-3.1-15.5-7.1
		c-2.9-2.6-3.8-6.1-3.4-9.9C287.7,688.2,287.8,686.9,288.7,685.6z"/>
	<path id="XMLID_19_" class="st0" d="M473.1,702.1c-3.5,1-6.8,1.2-10.1,2c-0.4-0.6-0.7-1.2-1-1.8c-1.6-2.3-4.3-3-6.9-1.9
		c-1.1,0.5-1.9,1.3-1.9,2.6c0,1.1,1,2,2.5,2.3c1.9,0.3,3.8,0.4,5.7,0.8c2.3,0.4,4.7,0.8,7,1.5c9,2.8,9.5,12.8,4.5,18.1
		c-1.5,1.6-3.3,2.8-5.4,3.5c-4.6,1.6-9.3,2-14.1,1.4c-5.4-0.7-9.2-4.9-10-10.7c3.3-0.6,6.6-1.2,10-1.8c0.5,1,0.8,1.8,1.3,2.6
		c1.8,2.9,6.3,3.7,9,1.7c2.2-1.7,2-4.6-0.5-5.8c-1-0.5-2.2-0.7-3.3-0.9c-2.6-0.5-5.2-0.8-7.7-1.3c-1.5-0.3-3.1-0.9-4.4-1.6
		c-5.8-3.2-6.7-10.7-2-15.3c1.3-1.3,2.9-2.2,4.6-2.8c4.4-1.5,8.9-2,13.4-1.3C468.9,693.9,471.8,696.9,473.1,702.1z"/>
	<path class="st0" d="M522.5,710.4c0,2.2,0,4.2,0,6.4c-3.5,1.2-6.8,2.4-10.3,3.7c-0.5-2.9-0.2-31.1,0.4-38.7
		c3.7-1.3,7.5-2.7,11.4-4.1c8.4,9.9,16.6,19.6,25.1,29.6c-3.8,1.4-7.3,2.6-10.7,3.9c-1.8-1.3-2.5-3.4-4.3-4.8
		C530.3,707.6,526.4,709,522.5,710.4z M522,702c2.6-0.6,4.8-1.5,7.3-2.5c-2.3-3.5-4.7-6.6-7.2-9.7c-0.1-0.1-0.4,0-0.8-0.1
		C521.5,693.8,521.8,697.8,522,702z"/>
	<path class="st0" d="M617.3,665.1c0.4-1.2-0.4-2.2-0.8-3.2c-3.8-9.8-7.7-19.6-11.6-29.4c-0.3-0.8-0.7-1.7-1-2.5
		c1.5-2,5.5-5.8,9.1-8.5c11.2,5.8,22.6,11.6,34.2,17.5c-2.7,2.9-5.5,5.3-8.3,7.8c-2.1-0.5-3.5-2.1-5.4-2.8c-2.1,1.4-7.2,6-9.4,8.5
		c0.7,1.6,1.5,3.4,2.4,5.2c-0.4,0.5-0.8,1-1.3,1.5c-2,1.9-4,3.7-6,5.5C618.5,665.4,617.9,665.3,617.3,665.1L617.3,665.1z
		 M620.3,644.9c2-1.8,3.9-3.5,5.9-5.3c-3.4-2-6.6-3.9-9.7-5.8c-0.4-0.2-0.9-0.8-1.5-0.1C616.7,637.3,618.4,641,620.3,644.9z"/>
	<path id="XMLID_14_" class="st0" d="M183.4,585.3c0.9,3.4,1.7,6.4,2.5,9.6c-2.1,1.1-4.2,1.3-6.4,1.2c-3.6-0.1-6.9-1.4-9.4-4.1
		c-3.1-3.2-5.3-7.1-6.6-11.4c-1.1-3.8-0.5-7.4,1.3-10.9c3.1-6.1,11.7-11.5,18.5-11.7c4.1-0.1,7.6,1.2,10.6,3.8
		c3.6,3.2,6,7.1,7.4,11.6c1,3.4,0.7,6.8-1,9.9c-0.7,1.3-1.5,2.5-2.4,4c-0.7-0.5-1.2-0.8-1.6-1.2c-1.8-1.9-3.6-3.7-5.6-5.8
		c0.4-0.8,0.9-1.5,1.3-2.3c2-4-1.5-9.1-5.2-9.2c-1.3-0.1-2.8-0.1-4,0.4c-3.1,1.1-5.9,2.9-8.3,5.2c-3.2,3.2-2.4,8.5,1.6,10.7
		c1.2,0.7,2.6,0.9,4,0.7C181,585.8,182,585.6,183.4,585.3z"/>
	<path id="XMLID_13_" class="st0" d="M496.1,696.1c2.1,8.7,4.3,17.3,6.4,26c-3.4,1.4-7,1.9-10.3,2.8c-0.3-0.2-0.4-0.2-0.5-0.3
		c-0.1-0.1-0.2-0.1-0.2-0.2c-2.1-8.5-4.2-16.9-6.4-25.6c-0.7,0.1-1.3,0-2,0.2c-3,0.7-5.9,1.4-9,2.2c-1.2-2.8-1.5-5.5-2.3-8.4
		c3.7-1.4,7.4-2,10.9-2.9c3.6-1,7.3-1.8,10.9-2.7c3.6-0.9,7.2-1.8,10.8-2.6c1.1,2,2,5.3,2.3,8.5
		C503.4,694.3,499.6,694.4,496.1,696.1z"/>
	<path id="XMLID_12_" class="st0" d="M697.6,429.7c0.2-0.9,0.1-1.9,0.1-2.8c0-1.1,0-2.3,0-3.4c0-1,0-2,0-3.1c0-1,0-2,0-3.2
		c1.3-0.1,2.4-0.1,3.5-0.1c1.1,0,2.3,0,3.5,0c0.1,0.5,0.4,0.9,0.4,1.4c0,7.6,0,15.2,0,22.8c0,0.2-0.1,0.4-0.2,0.9
		c-1,0.5-2.3,0.2-3.5,0.3c-1.2,0.1-2.5,0-3.7,0c-3-4.3-5.9-8.6-8.7-12.7c-1,0.1-0.7,0.8-0.7,1.3c0,3.6,0,7.2,0,10.8
		c-2.1,0.8-3.3,0.8-7,0.4c-0.1-0.1-0.2-0.2-0.2-0.3c-0.1-0.1-0.1-0.2-0.1-0.3c0-7.6,0-15.2,0-22.8c0-0.4,0.1-0.9,0.1-1.4
		c1.2-0.5,2.5-0.2,3.7-0.3c1.1-0.1,2.3,0,3.3,0c3.1,4.4,6.1,8.6,9.2,12.8C697.1,429.8,697.3,429.8,697.6,429.7z"/>
	<path id="XMLID_11_" class="st0" d="M651.4,417.1c2.5,0,4.8,0,7.3,0c2.8,4.1,5.8,8.4,8.7,12.6c0.9-0.1,0.8-0.7,0.9-1.3
		c0-2.8,0-5.7,0-8.5c0-0.9,0.1-1.8,0.1-2.9c1.2,0,2.3-0.1,3.4-0.1c1.1,0,2.2,0,3.3,0c0.6,2.6,0.8,17.3,0.3,25
		c-2.4,0.6-4.8,0.3-7.3,0.2c-2.9-4.2-5.8-8.4-8.6-12.6c-0.9,0.3-0.7,0.9-0.7,1.4c0,2.8,0,5.7,0,8.5c0,0.8-0.1,1.6-0.1,2.5
		c-2.4,0.4-4.6,0.2-6.9,0.1c-0.1-0.4-0.4-0.6-0.4-0.9C651.4,433.4,651.4,425.5,651.4,417.1z"/>
	<path id="XMLID_10_" class="st0" d="M173.5,436.3c0,1.9,0,3.7,0,5.7c-2.5,0.7-5,0.3-7.5,0.2c-0.6-2.8-0.2-5.5-0.3-8.2
		c-0.1-2.8,0-5.7,0-8.5c0-2.7,0-5.4,0-8.2c1.4-0.5,2.6-0.3,3.8-0.3c1.2,0,2.4,0.1,3.9,0.1c0.1,2.9,0.1,5.7,0.2,8.9
		c1.5-1,2.2-2.1,3.1-3.1c0.8-0.9,1.6-1.9,2.4-2.8c0.9-1,1.8-2,2.6-3c3.4,0,6.5,0,9.6,0c0.1,0.2,0.2,0.3,0.2,0.4
		c0,0.1-0.1,0.2-0.1,0.3c-2.7,2.8-5.3,5.6-8,8.4c-0.1,0.1-0.1,0.2-0.3,0.6c1.4,2.5,3.1,5,4.6,7.6c1.5,2.5,3.2,4.9,4.5,7.6
		c-0.6,0.1-0.9,0.3-1.2,0.3c-2.6,0-5.2,0-8,0c-2.1-3.1-3.3-6.7-5.4-10c-1,0.3-1.5,1.1-2.1,1.7C174.9,434.7,174.3,435.4,173.5,436.3z
		"/>
	<path id="XMLID_9_" class="st0" d="M232.8,612.8c2.6,2.5,5.2,5,7.6,7.6c-8.6,8.5-17,16.9-25.5,25.4c-2-1.3-5.5-4.7-7.7-7.5
		C215.6,629.8,224.1,621.5,232.8,612.8z"/>
	<path id="XMLID_8_" class="st0" d="M195.6,442.2c-0.4-3.5-0.4-22,0-24.9c2.7-0.4,17-0.4,20.5-0.1c0.4,1.6,0.2,3.2,0.1,5.1
		c-2.3,0.3-4.4,0.1-6.6,0.1c-2,0-4.1,0-6.3,0c-0.1,0.8-0.2,1.4-0.3,2.1c0,0.5,0.1,1.1,0.1,1.8c2,0.3,3.9,0.1,5.8,0.1
		c1.9,0,3.8,0,5.9,0c0.6,1.6,0.3,3.2,0.2,4.9c-2,0.4-3.9,0.2-5.8,0.2c-1.9,0-3.8,0-5.8,0c-0.8,1.7-0.5,3.2-0.3,4.9
		c2.3,0.2,4.4,0.1,6.5,0.1c2.1,0,4.3,0,6.6,0c0.3,1.9,0.2,3.5,0.1,5.2C214.1,442.5,204.2,442.7,195.6,442.2z"/>
	<path class="st0" d="M648.6,442.2c-2.9,0-5.4,0-8,0c-0.5-1.3-1-2.5-1.5-3.9c-1.4-0.4-2.9-0.2-4.4-0.2c-1.4,0-2.7,0-4.2,0
		c-0.5,1.4-1.1,2.7-1.6,4.1c-2.5,0-4.8,0-7.3,0c0-0.5-0.1-1,0-1.3c2.9-7.6,5.7-15.3,8.6-22.9c0.1-0.3,0.3-0.6,0.5-0.9
		c2.7,0,5.4,0,8.4,0C642.4,425.3,645.4,433.5,648.6,442.2z M632.3,432.6c1.7,0,3.3,0,5,0c-0.4-2.9-1.4-5.5-2.5-8.6
		C633.8,427.1,632.8,429.7,632.3,432.6z"/>
	<path class="st0" d="M735.1,442.2c-3,0-5.5,0-8.1,0c-0.5-1.3-0.9-2.6-1.4-3.9c-2.8,0-5.7,0-8.7,0c-0.5,1.2-0.9,2.4-1.4,3.8
		c-2.4,0.5-4.9,0.1-7.6,0.2c0.5-3.1,1.9-5.7,2.9-8.4c1-2.9,2.1-5.7,3.2-8.6c1-2.7,2.1-5.5,3.1-8.2c2.9,0,5.6,0,8.6,0
		C728.7,425.3,731.8,433.6,735.1,442.2z M721.4,424c-1.3,3.1-2.1,5.7-2.7,8.6c1.8,0.2,3.4,0.3,5.3-0.1
		C723.1,429.8,722.3,427.2,721.4,424z"/>
	<path class="st0" d="M145,417.1c2.8,0,5.5,0,8.5,0c1.8,4,3.2,8.3,4.8,12.5c1.6,4.1,3.2,8.2,4.7,12.7c-2.8,0.1-5.3,0.1-7.9,0.1
		c-0.5-1.3-1-2.6-1.5-4c-2.8-0.3-5.7-0.2-8.7-0.1c-0.5,1.4-1,2.6-1.5,3.9c-2.5,0.2-5,0.3-7.7-0.1C138.6,433.7,141.8,425.4,145,417.1
		z M149.3,424c-1.3,3.2-2.1,5.8-2.7,8.6c1.8,0.1,3.4,0.3,5.2-0.2C151,429.7,150.2,427.2,149.3,424z"/>
	<path id="XMLID_1_" class="st0" d="M114.3,417.1c2.8,0,5.2,0,7.7,0c0.5,3.2,0.2,6.4,0.2,9.5c0.1,3,0,6.1,0,9.3
		c2.1,0.3,4,0.1,5.9,0.2c1.9,0,3.9,0,5.8,0c0.8,2,0.3,3.9,0.4,5.9c-3.4,0.6-6.7,0.2-9.9,0.3c-3.3,0.1-6.6,0-10,0
		c-0.5-2.9-0.2-5.6-0.3-8.3c-0.1-2.8,0-5.7,0-8.5C114.3,422.8,114.3,420.1,114.3,417.1z"/>
</g>
</svg>
